HIERARCHY
ROOT Pelvis
{
	OFFSET 0.000000 0.941512 0.000000
	CHANNELS 6 Xposition Yposition Zposition Zrotation Yrotation Xrotation 
	JOINT Pelvis_L_Hip
	{
		OFFSET 0.000000 0.000000 0.000000
		CHANNELS 3 Zrotation Yrotation Xrotation
		JOINT L_Hip
		{
			OFFSET 0.062321 -0.080322 -0.016990
			CHANNELS 3 Zrotation Yrotation Xrotation
			JOINT L_Knee
			{
				OFFSET 0.093051 -0.381305 -0.029784
				CHANNELS 3 Zrotation Yrotation Xrotation
				JOINT L_Ankle
				{
					OFFSET -0.010371 -0.431000 -0.033614
					CHANNELS 3 Zrotation Yrotation Xrotation
					End Site #name: L_Foot
					{
						OFFSET 0.069299 -0.038670 0.119418
					}
				}
			}
		}
	}
	JOINT Pelvis_R_Hip
	{
		OFFSET 0.000000 0.000000 0.000000
		CHANNELS 3 Zrotation Yrotation Xrotation
		JOINT R_Hip
		{
			OFFSET -0.055334 -0.094904 -0.002373
			CHANNELS 3 Zrotation Yrotation Xrotation
			JOINT R_Knee
			{
				OFFSET -0.064207 -0.384370 -0.019592
				CHANNELS 3 Zrotation Yrotation Xrotation
				JOINT R_Ankle
				{
					OFFSET 0.025418 -0.419734 -0.065953
					CHANNELS 3 Zrotation Yrotation Xrotation
					End Site #name: R_Foot
					{
						OFFSET -0.057233 -0.039888 0.132134
					}
				}
			}
		}
	}
	JOINT Pelvis_Spine1
	{
		OFFSET 0.000000 0.000000 0.000000
		CHANNELS 3 Zrotation Yrotation Xrotation
		JOINT Spine1
		{
			OFFSET -0.005562 0.124093 -0.043360
			CHANNELS 3 Zrotation Yrotation Xrotation
			JOINT Spine2
			{
				OFFSET 0.012244 0.139499 0.029894
				CHANNELS 3 Zrotation Yrotation Xrotation
				JOINT Spine3
				{
					OFFSET -0.002556 0.056561 0.009225
					CHANNELS 3 Zrotation Yrotation Xrotation
					JOINT Spine3_Neck
					{
						OFFSET 0.000000 0.000000 0.000000
						CHANNELS 3 Zrotation Yrotation Xrotation
						JOINT Neck
						{
							OFFSET -0.005205 0.217920 -0.024551
							CHANNELS 3 Zrotation Yrotation Xrotation
							End Site #name: Head
							{
								OFFSET 0.002365 0.091850 0.046637
							}
						}
					}
					JOINT Spine3_L_Collar
					{
						OFFSET 0.000000 0.000000 0.000000
						CHANNELS 3 Zrotation Yrotation Xrotation
						JOINT L_Collar
						{
							OFFSET 0.072225 0.116603 -0.009480
							CHANNELS 3 Zrotation Yrotation Xrotation
							JOINT L_Shoulder
							{
								OFFSET 0.115937 -0.058643 -0.021018
								CHANNELS 3 Zrotation Yrotation Xrotation
								JOINT L_Elbow
								{
									OFFSET 0.021994 -0.254722 -0.024492
									CHANNELS 3 Zrotation Yrotation Xrotation
									End Site #name: L_Wrist
									{
										OFFSET 0.048810 -0.240214 0.103329
									}
								}
							}
						}
					}
					JOINT Spine3_R_Collar
					{
						OFFSET 0.000000 0.000000 0.000000
						CHANNELS 3 Zrotation Yrotation Xrotation
						JOINT R_Collar
						{
							OFFSET -0.073372 0.120704 -0.024611
							CHANNELS 3 Zrotation Yrotation Xrotation
							JOINT R_Shoulder
							{
								OFFSET -0.108089 -0.054969 -0.020504
								CHANNELS 3 Zrotation Yrotation Xrotation
								JOINT R_Elbow
								{
									OFFSET -0.033684 -0.260739 0.009889
									CHANNELS 3 Zrotation Yrotation Xrotation
									End Site #name: R_Wrist
									{
										OFFSET -0.067980 -0.232763 0.118463
									}
								}
							}
						}
					}
				}
			}
		}
	}
}
MOTION
Frames: 8
Frame Time: 0.041667
-0.007481 0.947260 -0.670396 -1.416881 0.328356 -4.044608 0.000000 0.000000 0.000000 -7.371267 -4.000945 -14.457056 0.252478 -0.661104 22.544279 -3.681723 -17.836224 -2.402531 0.000000 0.000000 0.000000 1.624009 -0.319461 1.371478 -0.547996 3.181192 43.255980 8.942440 19.602286 5.815327 0.000000 0.000000 0.000000 0.498486 0.274003 -4.106963 -5.164465 3.910337 31.533693 2.555213 1.637302 -25.124905 0.000000 0.000000 0.000000 0.567900 -0.754363 12.097234 0.000000 0.000000 0.000000 18.339282 -11.433372 -4.829080 -9.989376 -0.504938 -6.043269 -5.946935 -7.414919 -16.096346 0.000000 0.000000 0.000000 -14.382072 -0.001838 2.691812 18.660125 -5.652409 23.523154 -3.731606 -2.636576 3.059748 
-0.013973 0.940472 -0.713742 -1.437267 -0.566992 -3.130367 0.000000 0.000000 0.000000 -5.979174 -5.267049 -19.049556 -0.793000 -0.347863 23.691730 -4.435228 -15.819528 -0.492377 0.000000 0.000000 0.000000 2.056884 -1.049973 5.155964 -2.007270 3.586508 37.353937 10.627872 22.822699 6.926421 0.000000 0.000000 0.000000 0.691930 0.275273 -4.522564 -6.628554 4.628498 31.185042 3.181266 3.226876 -25.292887 0.000000 0.000000 0.000000 -0.145614 -0.368955 12.181494 0.000000 0.000000 0.000000 17.147010 -9.444302 -3.396846 -10.728717 -0.261166 -4.720890 -5.840615 -6.484323 -13.402390 0.000000 0.000000 0.000000 -14.253413 2.204389 1.106871 18.770002 -5.462442 22.810330 -2.513457 -2.030861 2.900427 
-0.022588 0.932450 -0.764100 -1.651983 -2.141425 -2.246361 0.000000 0.000000 0.000000 -4.358262 -6.305755 -23.510769 -0.952106 -0.228789 23.919840 -5.433245 -13.222101 2.145881 0.000000 0.000000 0.000000 3.484858 -1.466677 6.590754 -4.055886 4.007995 30.714175 8.545146 25.469875 2.297807 0.000000 0.000000 0.000000 0.759696 0.211598 -4.039653 -7.894653 5.272859 30.678039 4.037523 4.700769 -25.636493 0.000000 0.000000 0.000000 -1.140627 0.224662 11.959280 0.000000 0.000000 0.000000 16.237076 -7.545621 -2.123915 -11.569828 0.184946 -2.473197 -4.832003 -5.193457 -11.105042 0.000000 0.000000 0.000000 -14.007229 5.281108 -1.025558 17.961024 -4.551888 20.078000 -0.620712 -0.956118 2.237384 
-0.032022 0.923258 -0.820538 -1.680327 -3.122739 -2.202493 0.000000 0.000000 0.000000 -2.901380 -6.948846 -26.866046 -0.444627 -0.321445 22.571905 -7.890359 -11.527096 6.700067 0.000000 0.000000 0.000000 5.036924 -1.647874 6.676495 -4.543511 3.723629 26.231212 1.852521 23.678447 -7.923041 0.000000 0.000000 0.000000 0.691796 0.048356 -2.155493 -8.664113 5.608485 30.063485 4.468606 5.408340 -25.523543 0.000000 0.000000 0.000000 -2.107610 0.813935 11.099622 0.000000 0.000000 0.000000 15.804439 -6.549235 -1.479341 -11.928658 0.637838 -0.269407 -4.120322 -4.041676 -8.459758 0.000000 0.000000 0.000000 -13.975332 8.339622 -3.092333 16.697251 -2.965315 14.870131 1.273421 0.325313 1.038534 
-0.040585 0.917119 -0.876727 -1.786853 -3.003075 -3.359358 0.000000 0.000000 0.000000 -1.437653 -6.986175 -27.941607 0.392713 -0.493903 18.884517 -12.388251 -11.669612 13.240008 0.000000 0.000000 0.000000 6.584127 -1.773872 6.552091 -4.155416 3.217416 23.505727 -2.668379 19.901500 -14.510531 0.000000 0.000000 0.000000 0.918241 -0.230446 0.421224 -8.908452 5.728071 30.203391 4.598486 5.624167 -25.464030 0.000000 0.000000 0.000000 -2.810008 1.209557 10.786779 0.000000 0.000000 0.000000 15.281627 -6.366463 -1.400509 -12.066836 1.038256 1.715568 -3.771439 -2.928298 -5.017483 0.000000 0.000000 0.000000 -14.085069 10.697798 -4.704106 14.803186 -1.240949 8.716926 2.258538 1.426655 -0.835627 
-0.047950 0.917613 -0.928074 -1.997957 -2.049753 -4.637456 0.000000 0.000000 0.000000 0.202552 -6.924898 -28.685916 -0.450017 -0.301722 18.058637 -15.006703 -12.544019 16.367911 0.000000 0.000000 0.000000 8.172131 -1.747477 5.804309 -3.939035 2.878533 21.754852 -4.370790 17.135039 -16.910382 0.000000 0.000000 0.000000 1.030169 -0.412900 2.124510 -9.054801 5.794899 30.696146 5.128364 6.108739 -25.719859 0.000000 0.000000 0.000000 -2.881017 1.196096 11.610084 0.000000 0.000000 0.000000 14.684506 -6.232650 -1.321613 -12.859825 1.467687 3.609709 -3.033814 -1.507181 -0.801855 0.000000 0.000000 0.000000 -14.475639 12.268430 -5.821537 12.941104 -0.031321 3.851312 2.114028 2.148606 -3.247494 
-0.053311 0.922682 -0.973948 -1.988812 -0.811600 -5.930303 0.000000 0.000000 0.000000 0.928594 -7.191647 -30.014395 -3.241693 0.366331 25.996615 -11.601969 -12.121548 11.657383 0.000000 0.000000 0.000000 9.094837 -1.529886 4.647790 -3.757188 2.662677 20.926634 -4.390868 15.139007 -16.511685 0.000000 0.000000 0.000000 0.845419 -0.516732 3.642165 -9.394329 5.721481 29.853971 5.889332 6.847347 -25.022058 0.000000 0.000000 0.000000 -2.165395 0.711672 11.814991 0.000000 0.000000 0.000000 14.557859 -5.292772 -0.578539 -14.551111 1.946846 5.117906 -1.593560 -0.086679 2.667441 0.000000 0.000000 0.000000 -15.493804 12.996718 -6.386400 11.990241 0.730127 0.465678 1.485972 2.803582 -6.265355 
-0.056289 0.931781 -1.015888 -1.792252 -0.294262 -6.452256 0.000000 0.000000 0.000000 0.518290 -7.351603 -30.149521 -5.358076 1.242537 36.396086 -6.212985 -9.345645 5.097689 0.000000 0.000000 0.000000 9.303119 -1.038965 2.664318 -3.874282 2.599665 20.144570 -3.213259 14.663016 -14.126713 0.000000 0.000000 0.000000 0.635948 -0.505615 4.031771 -9.940265 5.813697 29.088110 6.543834 7.662553 -24.316856 0.000000 0.000000 0.000000 -1.360050 0.203088 11.577851 0.000000 0.000000 0.000000 14.618725 -3.532810 0.740914 -15.942199 2.446047 6.625692 -0.221921 0.890011 4.746863 0.000000 0.000000 0.000000 -16.264601 13.292179 -6.655419 11.619811 1.134225 -1.387932 0.493211 3.389981 -9.795838 
